<?xml version="1.0" encoding="utf-8"?>
<!-- Generator: Adobe Illustrator 19.0.0, SVG Export Plug-In . SVG Version: 6.00 Build 0)  -->
<svg version="1.1" id="Layer_1" xmlns="http://www.w3.org/2000/svg" xmlns:xlink="http://www.w3.org/1999/xlink" x="0px" y="0px"
	 viewBox="-339 31 280 500" style="enable-background:new -339 31 280 500;" xml:space="preserve">
<style type="text/css">
	.st0{fill:#231F20;}
</style>
<g>
	<g>
		<path class="st0" d="M-199,421c-77.2,0-140-62.8-140-140s62.8-140,140-140s140,62.8,140,140S-121.8,421-199,421z M-199,171
			c-60.7,0-110,49.3-110,110s49.3,110,110,110s110-49.3,110-110S-138.3,171-199,171z"/>
	</g>
	<g>
		<path class="st0" d="M-156.4,338.6c-3.8,0-7.7-1.5-10.6-4.4l-85.2-85.2c-5.9-5.9-5.9-15.4,0-21.2c5.9-5.9,15.4-5.9,21.2,0
			l85.2,85.2c5.9,5.9,5.9,15.4,0,21.2C-148.7,337.1-152.6,338.6-156.4,338.6z"/>
	</g>
	<g>
		<path class="st0" d="M-241.6,338.6c-3.8,0-7.7-1.5-10.6-4.4c-5.9-5.9-5.9-15.4,0-21.2l85.2-85.2c5.9-5.9,15.4-5.9,21.2,0
			c5.9,5.9,5.9,15.4,0,21.2l-85.2,85.2C-233.9,337.1-237.8,338.6-241.6,338.6z"/>
	</g>
</g>
</svg>
