<?xml version="1.0" encoding="utf-8"?>
<!-- Generator: Adobe Illustrator 19.0.0, SVG Export Plug-In . SVG Version: 6.00 Build 0)  -->
<svg version="1.1" id="Layer_1" xmlns="http://www.w3.org/2000/svg" xmlns:xlink="http://www.w3.org/1999/xlink" x="0px" y="0px"
	 viewBox="-366.9 31 280 500" style="enable-background:new -366.9 31 280 500;" xml:space="preserve">
<style type="text/css">
	.st0{fill:#231F20;}
</style>
<g>
	<path class="st0" d="M-226.9,421c-77.2,0-140-62.8-140-140s62.8-140,140-140c77.2,0,140,62.8,140,140S-149.7,421-226.9,421z
		 M-226.9,171c-60.7,0-110,49.3-110,110s49.3,110,110,110c60.7,0,110-49.3,110-110S-166.2,171-226.9,171z"/>
</g>
<g>
	<g>
		<path class="st0" d="M-226.9,362.3c-9.7,0-17.5-7.8-17.5-17.5v-73.5c0-9.7,7.8-17.5,17.5-17.5c9.7,0,17.5,7.8,17.5,17.5v73.5
			C-209.4,354.5-217.2,362.3-226.9,362.3z"/>
	</g>
	<g>
		<path class="st0" d="M-226.9,236.5c-9.7,0-17.5-7.8-17.5-17.5v-0.2c0-9.7,7.8-17.5,17.5-17.5c9.7,0,17.5,7.8,17.5,17.5v0.2
			C-209.4,228.6-217.2,236.5-226.9,236.5z"/>
	</g>
</g>
</svg>
