<?xml version="1.0" encoding="utf-8"?>
<!-- Generator: Adobe Illustrator 21.0.2, SVG Export Plug-In . SVG Version: 6.00 Build 0)  -->
<svg version="1.1" id="Layer_1" xmlns="http://www.w3.org/2000/svg" xmlns:xlink="http://www.w3.org/1999/xlink" x="0px" y="0px"
	 viewBox="0 0 280 500" enable-background="new 0 0 280 500" xml:space="preserve">
<g>
	<g>
		<path fill="#231F20" d="M65.1,260.5c1.5,0,3.1-0.6,4.2-1.8c2.3-2.3,2.3-6.1,0-8.5c-1.5-1.5-1.5-4.1,0-5.7L205,108.9
			c1.5-1.5,4.1-1.5,5.7,0c1.5,1.5,1.5,4.1,0,5.7L81.9,243.4c-2.3,2.3-2.3,6.1,0,8.5c2.3,2.3,6.1,2.3,8.5,0l128.8-128.8
			c6.2-6.2,6.2-16.4,0-22.6c-6.2-6.2-16.4-6.2-22.6,0L60.8,236.1c-6.2,6.2-6.2,16.4,0,22.6C62,259.9,63.5,260.5,65.1,260.5z"/>
	</g>
	<g>
		<g>
			<path fill="#231F20" d="M207.1,399c4.1,0,8.2-1.6,11.3-4.7c6.2-6.2,6.2-16.4,0-22.6L90.3,243.6c-2.3-2.3-6.1-2.3-8.5,0
				c-2.3,2.3-2.3,6.1,0,8.5l128.1,128.1c1.5,1.5,1.5,4.1,0,5.7c-1.5,1.5-4.1,1.5-5.7,0L69.1,250.2c-2.3-2.3-6.1-2.4-8.5,0
				c-2.3,2.3-2.4,6.1,0,8.5l135.2,135.7C198.9,397.4,203,399,207.1,399z"/>
		</g>
	</g>
</g>
</svg>
