<?xml version="1.0" encoding="utf-8"?>
<!-- Generator: Adobe Illustrator 19.0.0, SVG Export Plug-In . SVG Version: 6.00 Build 0)  -->
<svg version="1.1" id="Layer_1" xmlns="http://www.w3.org/2000/svg" xmlns:xlink="http://www.w3.org/1999/xlink" x="0px" y="0px"
	 viewBox="-339 31 280 500" style="enable-background:new -339 31 280 500;" xml:space="preserve">
<g>
	<g>
		<path d="M-182.5,325.5c-47.4,0-86-38.6-86-86c0-47.4,38.6-86,86-86c47.4,0,86,38.6,86,86C-96.5,286.9-135.1,325.5-182.5,325.5z
			 M-182.5,183.5c-30.9,0-56,25.1-56,56s25.1,56,56,56c30.9,0,56-25.1,56-56S-151.6,183.5-182.5,183.5z"/>
	</g>
	<g>
		<path d="M-286.5,408.5c-2.9,0-5.9-0.9-8.5-2.7c-6.8-4.7-8.5-14.1-3.8-20.9l65-94c4.7-6.8,14.1-8.5,20.9-3.8
			c6.8,4.7,8.5,14.1,3.8,20.9l-65,94C-277.1,406.2-281.8,408.5-286.5,408.5z"/>
	</g>
</g>
</svg>
