<?xml version="1.0" encoding="utf-8"?>
<!-- Generator: Adobe Illustrator 19.0.0, SVG Export Plug-In . SVG Version: 6.00 Build 0)  -->
<svg version="1.1" id="Layer_1" xmlns="http://www.w3.org/2000/svg" xmlns:xlink="http://www.w3.org/1999/xlink" x="0px" y="0px"
	 viewBox="-353 31 252.2 500" style="enable-background:new -353 31 252.2 500;" xml:space="preserve">
<path d="M-204.6,281l99.2-99.2c6.1-6.1,6.1-16,0-22.1s-16-6.1-22.1,0l-99.2,99.2l-99.6-99.6c-6.1-6.1-16-6.1-22.1,0
	c-6.1,6.1-6.1,16,0,22.1l99.6,99.6l-99.6,99.6c-6.1,6.1-6.1,16,0,22.1c3.1,3.1,7,4.6,11,4.6s8-1.5,11-4.6l99.6-99.6l99.2,99.2
	c3.1,3.1,7,4.6,11,4.6s8-1.5,11-4.6c6.1-6.1,6.1-16,0-22.1L-204.6,281z"/>
</svg>
