<?xml version="1.0" encoding="utf-8"?>
<!-- Generator: Adobe Illustrator 21.0.2, SVG Export Plug-In . SVG Version: 6.00 Build 0)  -->
<svg version="1.1" id="Layer_1" xmlns="http://www.w3.org/2000/svg" xmlns:xlink="http://www.w3.org/1999/xlink" x="0px" y="0px"
	 viewBox="0 0 280 500" enable-background="new 0 0 280 500" xml:space="preserve">
<g>
	<g>
		<path fill="#231F20" d="M214.9,260.5c-1.5,0-3.1-0.6-4.2-1.8c-2.3-2.3-2.3-6.1,0-8.5c1.5-1.5,1.5-4.1,0-5.7L75,108.9
			c-1.5-1.5-4.1-1.5-5.7,0c-1.5,1.5-1.5,4.1,0,5.7l128.8,128.8c2.3,2.3,2.3,6.1,0,8.5c-2.3,2.3-6.1,2.3-8.5,0L60.8,123.1
			c-6.2-6.2-6.2-16.4,0-22.6c6.2-6.2,16.4-6.2,22.6,0l135.7,135.7c6.2,6.2,6.2,16.4,0,22.6C218,259.9,216.5,260.5,214.9,260.5z"/>
	</g>
	<g>
		<g>
			<path fill="#231F20" d="M72.9,399c-4.1,0-8.2-1.6-11.3-4.7c-6.2-6.2-6.2-16.4,0-22.6l128.1-128.1c2.3-2.3,6.1-2.3,8.5,0
				c2.3,2.3,2.3,6.1,0,8.5L70.1,380.2c-1.5,1.5-1.5,4.1,0,5.7c1.5,1.5,4.1,1.5,5.7,0l135.1-135.7c2.3-2.3,6.1-2.4,8.5,0
				c2.3,2.3,2.4,6.1,0,8.5L84.2,394.3C81.1,397.4,77,399,72.9,399z"/>
		</g>
	</g>
</g>
</svg>
