<?xml version="1.0" encoding="utf-8"?>
<!-- Generator: Adobe Illustrator 19.0.0, SVG Export Plug-In . SVG Version: 6.00 Build 0)  -->
<svg version="1.1" id="Layer_1" xmlns="http://www.w3.org/2000/svg" xmlns:xlink="http://www.w3.org/1999/xlink" x="0px" y="0px"
	 viewBox="-339 31 280 500" style="enable-background:new -339 31 280 500;" xml:space="preserve">
<style type="text/css">
	.st0{fill:#231F20;}
</style>
<g>
	<path class="st0" d="M-199,421c-77.2,0-140-62.8-140-140s62.8-140,140-140s140,62.8,140,140S-121.8,421-199,421z M-199,171
		c-60.7,0-110,49.3-110,110s49.3,110,110,110s110-49.3,110-110S-138.3,171-199,171z"/>
</g>
<g>
	<g>
		<path class="st0" d="M-220.1,332.5c-3.8,0-7.7-1.5-10.6-4.4c-5.9-5.9-5.9-15.4,0-21.2l72.9-72.9c5.9-5.9,15.4-5.9,21.2,0
			c5.9,5.9,5.9,15.4,0,21.2l-72.9,72.9C-212.4,331-216.2,332.5-220.1,332.5z"/>
	</g>
	<g>
		<path class="st0" d="M-220.3,332.2c-3.8,0-7.7-1.5-10.6-4.4l-30.6-30.6c-5.9-5.9-5.9-15.4,0-21.2c5.9-5.9,15.4-5.9,21.2,0
			l30.6,30.6c5.9,5.9,5.9,15.4,0,21.2C-212.6,330.7-216.5,332.2-220.3,332.2z"/>
	</g>
</g>
</svg>
