<?xml version="1.0" encoding="utf-8"?>
<!-- Generator: Adobe Illustrator 19.0.0, SVG Export Plug-In . SVG Version: 6.00 Build 0)  -->
<svg version="1.1" id="Layer_1" xmlns="http://www.w3.org/2000/svg" xmlns:xlink="http://www.w3.org/1999/xlink" x="0px" y="0px"
	 viewBox="-339 31 280 500" style="enable-background:new -339 31 280 500;" xml:space="preserve">
<style type="text/css">
	.st0{fill:#231F20;}
</style>
<g>
	<g>
		<path class="st0" d="M-199,421c-77.2,0-140-62.8-140-140s62.8-140,140-140s140,62.8,140,140S-121.8,421-199,421z M-199,171
			c-60.7,0-110,49.3-110,110s49.3,110,110,110s110-49.3,110-110S-138.3,171-199,171z"/>
	</g>
	<g>
		<path class="st0" d="M-199,309.7c-9.7,0-17.5-7.8-17.5-17.5v-73.5c0-9.7,7.8-17.5,17.5-17.5s17.5,7.8,17.5,17.5v73.5
			C-181.5,301.9-189.3,309.7-199,309.7z"/>
	</g>
	<g>
		<path class="st0" d="M-199,362.3c-9.7,0-17.5-7.8-17.5-17.5v-0.2c0-9.7,7.8-17.5,17.5-17.5s17.5,7.8,17.5,17.5v0.2
			C-181.5,354.5-189.3,362.3-199,362.3z"/>
	</g>
</g>
</svg>
